#!OML:ASF F:\VICON\USERDATA\INSTALL\rory3\rory3.ASF
:FULLY-SPECIFIED
:DEGREES
1439
root -3.64685 17.5545 2.27961 -536.215 -122.42 537.559
lowerback 5.97358 -0.860358 -3.1794
upperback -0.0304653 -1.42282 -1.28035
thorax -3.3379 -0.669645 0.587235
lowerneck -14.0772 -10.5291 -14.8449
upperneck -24.728 -12.1981 11.4023
head -3.71554 -5.72199 5.81172
rclavicle -4.97459e-014 2.8625e-014
rhumerus 16.638 -8.55483 -33.0068
rradius 83.0779
rwrist 11.256
rhand -33.744 -0.87416
rfingers 7.12502
rthumb -6.93249 -30.7406
lclavicle -4.97459e-014 2.8625e-014
lhumerus -31.3523 -13.7076 60.6885
lradius 90.0654
lwrist -5.67206
lhand -14.6551 11.0585
lfingers 7.12502
lthumb 11.4973 40.7232
rfemur -15.4167 1.76711 14.2989
rtibia 36.4295
rfoot -23.2923 -13.2602
rtoes 1.2378
lfemur -13.4113 1.46242 -10.061
ltibia 41.9124
lfoot -13.0528 -12.4863
ltoes -15.7957
1440
root -3.59441 17.5356 2.3354 -536.207 -122.739 537.511
lowerback 5.92493 -0.951521 -3.21115
upperback -0.0708945 -1.53954 -1.14742
thorax -3.34402 -0.725048 0.751433
lowerneck -13.7588 -10.6178 -15.0501
upperneck -24.7257 -12.3046 11.6155
head -3.71395 -5.77135 5.91628
rclavicle 4.34841e-014 -4.77083e-015
rhumerus 16.8944 -9.55531 -32.3555
rradius 83.5094
rwrist 11.3497
rhand -33.9867 -0.717869
rfingers 7.12502
rthumb -7.16672 -30.5765
lclavicle 4.34841e-014 -4.77083e-015
lhumerus -30.9195 -13.7881 60.54
lradius 90.3801
lwrist -5.38848
lhand -14.9655 11.3097
lfingers 7.12502
lthumb 11.198 40.9909
rfemur -15.6706 1.65393 14.0271
rtibia 37.0426
rfoot -23.6713 -13.1176
rtoes 2.02085
lfemur -13.3558 1.96583 -10.5984
ltibia 41.7792
lfoot -14.0414 -11.5686
ltoes -14.3612
1441
root -3.54418 17.5059 2.38672 -536.302 -122.985 537.595
lowerback 5.83106 -1.05005 -3.46027
upperback -0.0859663 -1.6775 -0.98667
thorax -3.29017 -0.788461 1.06616
lowerneck -13.6499 -10.6123 -15.0519
upperneck -24.6585 -12.3158 11.5657
head -3.71077 -5.77692 5.90193
rclavicle 1.00883e-014 1.59028e-015
rhumerus 17.3757 -10.5165 -31.6305
rradius 83.8975
rwrist 11.5941
rhand -34.5856 -1.18712
rfingers 7.12502
rthumb -7.74482 -31.0253
lclavicle 1.00883e-014 1.59028e-015
lhumerus -30.439 -13.781 60.3321
lradius 90.7189
lwrist -5.02508
lhand -15.2601 11.3208
lfingers 7.12502
lthumb 10.9138 41.0171
rfemur -16.039 1.49212 13.7024
rtibia 37.8086
rfoot -23.9537 -12.9802
rtoes 2.38131
lfemur -13.2358 2.42383 -11.1725
ltibia 41.5516
lfoot -15.0725 -10.8325
ltoes -13.2338
1442
root -3.49207 17.4718 2.43683 -536.381 -123.164 537.718
lowerback 5.68612 -1.08645 -3.80281
upperback -0.0952868 -1.73594 -0.819893
thorax -3.20086 -0.811771 1.43107
lowerneck -13.6926 -10.4527 -14.6789
upperneck -24.58 -12.2117 10.9985
head -3.76622 -5.72886 5.67216
rclavicle -3.58806e-014 -7.95139e-015
rhumerus 17.8384 -11.6493 -30.9144
rradius 84.2417
rwrist 11.7721
rhand -35.1165 -1.33145
rfingers 7.12502
rthumb -8.2572 -31.1501
lclavicle -3.58806e-014 -7.95139e-015
lhumerus -29.7835 -13.8217 60.1587
lradius 91.0914
lwrist -4.7185
lhand -15.4533 11.4502
lfingers 7.12502
lthumb 10.7275 41.1563
rfemur -16.5658 1.21203 13.3443
rtibia 38.709
rfoot -24.037 -12.7757
rtoes 2.46375
lfemur -13.1023 2.79445 -11.7021
ltibia 41.26
lfoot -15.8457 -10.3243
ltoes -10.7429
1443
root -3.43507 17.4377 2.4877 -536.655 -123.367 537.955
lowerback 5.67923 -1.12783 -4.10288
upperback -0.0925098 -1.80877 -0.766014
thorax -3.17973 -0.84319 1.66003
lowerneck -13.5361 -10.406 -14.5309
upperneck -24.554 -12.1962 10.8907
head -3.79779 -5.72919 5.62369
rclavicle -3.01656e-014 9.54166e-015
rhumerus 18.2848 -12.8208 -30.3597
rradius 84.507
rwrist 11.8396
rhand -35.6284 -1.15664
rfingers 7.12502
rthumb -8.7512 -30.9552
lclavicle -3.01656e-014 9.54166e-015
lhumerus -29.0569 -13.9147 59.8515
lradius 91.5145
lwrist -4.41104
lhand -15.5471 11.623
lfingers 7.12502
lthumb 10.637 41.3338
rfemur -17.0449 0.806408 12.8916
rtibia 39.7201
rfoot -23.9007 -12.5383
rtoes 1.75738
lfemur -12.8354 2.94927 -12.2797
ltibia 40.9214
lfoot -16.5155 -9.77425
ltoes -6.84643
1444
root -3.37694 17.4072 2.54051 -536.985 -123.59 538.119
lowerback 5.81769 -1.16621 -4.31768
upperback -0.063096 -1.87924 -0.718004
thorax -3.21477 -0.874099 1.83856
lowerneck -13.2063 -10.5341 -14.8168
upperneck -24.665 -12.314 11.377
head -3.80217 -5.78991 5.83083
rclavicle -5.77469e-014 -1.59028e-015
rhumerus 18.8012 -14.0214 -29.8001
rradius 84.6588
rwrist 12.0443
rhand -36.2504 -1.37797
rfingers 7.12502
rthumb -9.35143 -31.1505
lclavicle -5.77469e-014 -1.59028e-015
lhumerus -28.2713 -13.9644 59.5727
lradius 91.9637
lwrist -4.15945
lhand -15.6319 11.8632
lfingers 7.12502
lthumb 10.5552 41.5782
rfemur -17.4564 0.261056 12.4799
rtibia 40.8271
rfoot -23.5693 -12.3288
rtoes 0.824545
lfemur -12.4462 2.94472 -12.7462
ltibia 40.5415
lfoot -16.9974 -9.63087
ltoes -0.819244
